# xmcd
#
# Track frame offsets: 
#        150
#        2255
#        18715
#        32085
#        54704
#        70027
#        85409
#        98030
#        112729
#        130100
#        149627
#        162457
#
# Disc length: 2391 seconds
#
# Revision: 0
# Processed by: cddbd v1.5.2PL0 Copyright (c) Steve Scherf et al.
# Submitted via: ExactAudioCopy v0.95b3
#
DISCID=9909550c
DTITLE=James Taylor  - That's Why I'm Here  FLAC
DYEAR=1900
DGENRE=
TTITLE0=That's Why I'm Here (Reprise)
TTITLE1=That's Why I'm Here
TTITLE2=Song For You Far Away
TTITLE3=Only A Dream In Rio
TTITLE4=Turn Away
TTITLE5=Going Around One More Time
TTITLE6=My Romance
TTITLE7=Everyday
TTITLE8=Limosine Driver
TTITLE9=Only One
TTITLE10=Mona
TTITLE11=The Man Who Shot Liberty Valance
EXTD=
EXTT0=
EXTT1=
EXTT2=
EXTT3=
EXTT4=
EXTT5=
EXTT6=
EXTT7=
EXTT8=
EXTT9=
EXTT10=
EXTT11=
PLAYORDER=
